<?xml version="1.0" encoding="iso-8859-1"?>
<!-- Generator: Adobe Illustrator 30.3.0, SVG Export Plug-In . SVG Version: 9.03 Build 0)  -->
<svg version="1.1" id="a" xmlns="http://www.w3.org/2000/svg" xmlns:xlink="http://www.w3.org/1999/xlink" x="0px" y="0px"
	 viewBox="0 0 499.04 489.8" style="enable-background:new 0 0 499.04 489.8;" xml:space="preserve">
<rect style="fill:#3C3C3C;" width="499.04" height="489.8"/>
<g>
	<g style="enable-background:new    ;">
		<path style="fill:#FFFFFF;" d="M111.312,408.918V424.7H96.528v26.851H79.406V424.7H33.541v-18.126l35.565-77.201h17.618
			l-36.555,79.545h29.246v-25.175h17.122v25.175h14.784H111.312z"/>
	</g>
	<path style="fill:#FFFFFF;" d="M224.97,354.209c0,14.098-10.134,22.154-20.763,29.034c15.123,7.388,25.422,17.788,25.422,35.914
		c0,24.837-18.443,33.891-40.38,33.891s-40.38-9.055-40.38-33.891c0-18.126,10.299-28.526,25.257-35.914
		c-10.473-6.888-20.616-14.944-20.616-29.034c0-19.463,18.782-27.02,35.739-27.02s35.73,7.557,35.73,27.02H224.97z M212.506,417.642
		c0-13.252-11.464-19.302-23.258-25.835c-11.968,6.541-23.267,12.583-23.267,25.835c0,13.929,11.803,19.632,23.267,19.632
		S212.506,431.571,212.506,417.642z M170.622,355.716c0,9.571,11.134,16.112,18.617,19.133c7.474-3.021,18.617-9.571,18.617-19.133
		c0-10.231-10.473-12.753-18.617-12.753S170.622,345.485,170.622,355.716z"/>
	<path style="fill:#FFFFFF;" d="M341.211,435.769v15.782h-71.782v-9.232c0-28.865,10.464-40.441,33.74-55.377
		c8.969-5.712,22.432-13.43,22.432-25.514c0-9.901-8.978-18.465-18.617-18.465c-11.794,0-26.092,6.211-35.4,13.091v-18.625
		c8.978-6.888,21.772-10.239,32.741-10.239c20.763,0,38.381,11.077,38.381,33.57s-15.948,30.54-32.245,41.279
		c-10.794,7.049-23.927,17.128-23.927,31.217v2.513H341.211L341.211,435.769z"/>
	<path style="fill:#FFFFFF;" d="M458.03,435.769v15.782h-71.782v-9.232c0-28.865,10.464-40.441,33.74-55.377
		c8.969-5.712,22.432-13.43,22.432-25.514c0-9.901-8.978-18.465-18.617-18.465c-11.794,0-26.092,6.211-35.4,13.091v-18.625
		c8.978-6.888,21.772-10.239,32.741-10.239c20.763,0,38.381,11.077,38.381,33.57s-15.948,30.54-32.245,41.279
		c-10.794,7.049-23.927,17.128-23.927,31.217v2.513H458.03L458.03,435.769z"/>
</g>
<rect x="2.551" y="43.468" style="fill:#FFFFFF;" width="30.99" height="256.986"/>
<rect x="57.87" y="43.468" style="fill:#FFFFFF;" width="47.747" height="256.986"/>
<rect x="151.317" y="43.468" style="fill:#FFFFFF;" width="72.84" height="256.986"/>
<rect x="351.648" y="43.468" style="fill:#FFFFFF;" width="82.6" height="256.986"/>
<rect x="267.442" y="43.468" style="fill:#FFFFFF;" width="50.643" height="256.986"/>
<rect x="465.542" y="43.468" style="fill:#FFFFFF;" width="31.24" height="256.986"/>
</svg>
